<svg width="31" height="31" viewBox="0 0 31 31" fill="none" xmlns="http://www.w3.org/2000/svg">
<path d="M26.592 6.29359C26.4812 5.7503 26.1662 5.34009 25.806 5.2143C25.1687 4.99005 22.0625 4.47958 15.5 4.47958C8.93746 4.47958 5.83413 4.99005 5.191 5.2143C4.83517 5.33827 4.52017 5.74847 4.40788 6.29359C4.24892 7.06659 3.83329 10.3063 3.83329 15.4183C3.83329 20.5304 4.24892 23.7682 4.40788 24.5449C4.51871 25.0864 4.83371 25.4966 5.19246 25.6205C5.83413 25.8466 8.93746 26.3571 15.5 26.3571C22.0625 26.3571 25.1673 25.8466 25.8089 25.6224C26.1648 25.4984 26.4798 25.0882 26.592 24.5431C26.751 23.7701 27.1666 20.5231 27.1666 15.4183C27.1666 10.3136 26.751 7.06842 26.592 6.29359ZM29.4168 5.38749C30.0833 8.6363 30.0833 15.4183 30.0833 15.4183C30.0833 15.4183 30.0833 22.2004 29.4168 25.4492C29.0464 27.2449 27.9629 28.6579 26.5906 29.1355C24.0983 30.0033 15.5 30.0033 15.5 30.0033C15.5 30.0033 6.906 30.0033 4.40933 29.1355C3.03121 28.6506 1.94913 27.2395 1.58308 25.4492C0.916626 22.2004 0.916626 15.4183 0.916626 15.4183C0.916626 15.4183 0.916626 8.6363 1.58308 5.38749C1.9535 3.59172 3.03704 2.17879 4.40933 1.70114C6.906 0.833328 15.5 0.833328 15.5 0.833328C15.5 0.833328 24.0983 0.833328 26.5906 1.70114C27.9687 2.18609 29.0508 3.59719 29.4168 5.38749V5.38749ZM12.5833 21.7993V9.03739L21.3333 15.4183L12.5833 21.7993Z" fill="#333333"/>
</svg>
