<svg width="31" height="31" viewBox="0 0 31 31" fill="none" xmlns="http://www.w3.org/2000/svg">
<path d="M22.7918 11.0477C22.2551 11.281 21.6791 11.4415 21.0738 11.5115C21.6922 11.1469 22.1647 10.5694 22.3893 9.8825C21.8 10.2259 21.1571 10.4675 20.4876 10.5971C20.206 10.3019 19.8671 10.0671 19.4918 9.90718C19.1165 9.74721 18.7125 9.66538 18.3045 9.66667C16.6522 9.66667 15.3134 10.9865 15.3134 12.6125C15.3134 12.8429 15.3397 13.0675 15.3907 13.2833C14.2056 13.2271 13.0452 12.9244 11.9835 12.3946C10.9219 11.8647 9.98239 11.1195 9.22489 10.2063C8.95884 10.6541 8.81876 11.1655 8.81948 11.6865C8.81948 12.7073 9.34885 13.6115 10.1509 14.1379C9.67617 14.123 9.21156 13.9966 8.79468 13.769V13.8054C8.79919 14.4901 9.04085 15.152 9.47852 15.6784C9.91619 16.2049 10.5228 16.5634 11.1951 16.6929C10.7537 16.8096 10.2919 16.8266 9.84323 16.7425C10.0388 17.3315 10.413 17.8449 10.9137 18.2116C11.4144 18.5782 12.0168 18.7799 12.6374 18.7885C11.5728 19.6089 10.2656 20.0522 8.92156 20.0485C8.68093 20.0485 8.44323 20.034 8.20844 20.0077C9.57996 20.8758 11.1703 21.3356 12.7934 21.3333C18.2972 21.3333 21.3057 16.8446 21.3057 12.9508L21.2955 12.5688C21.8822 12.1565 22.3892 11.6411 22.7918 11.0477V11.0477Z" fill="#333333"/>
<path d="M6.75008 3.83334C5.97653 3.83334 5.23467 4.14063 4.68769 4.68761C4.14071 5.23459 3.83341 5.97646 3.83341 6.75V24.25C3.83341 25.0236 4.14071 25.7654 4.68769 26.3124C5.23467 26.8594 5.97653 27.1667 6.75008 27.1667H24.2501C25.0236 27.1667 25.7655 26.8594 26.3125 26.3124C26.8595 25.7654 27.1667 25.0236 27.1667 24.25V6.75C27.1667 5.97646 26.8595 5.23459 26.3125 4.68761C25.7655 4.14063 25.0236 3.83334 24.2501 3.83334H6.75008ZM6.75008 0.916672H24.2501C25.7972 0.916672 27.2809 1.53125 28.3749 2.62522C29.4688 3.71918 30.0834 5.20291 30.0834 6.75V24.25C30.0834 25.7971 29.4688 27.2808 28.3749 28.3748C27.2809 29.4688 25.7972 30.0833 24.2501 30.0833H6.75008C5.20298 30.0833 3.71925 29.4688 2.62529 28.3748C1.53133 27.2808 0.916748 25.7971 0.916748 24.25V6.75C0.916748 5.20291 1.53133 3.71918 2.62529 2.62522C3.71925 1.53125 5.20298 0.916672 6.75008 0.916672V0.916672Z" fill="#333333"/>
</svg>
