<svg width="30" height="30" viewBox="0 0 30 30" fill="none" xmlns="http://www.w3.org/2000/svg">
<path d="M14.585 0C10.6201 0 10.126 0.0191452 8.57432 0.0847859C7.01626 0.161367 5.96236 0.402961 5.03245 0.763985C4.0592 1.13141 3.1778 1.70667 2.44967 2.44967C1.7046 3.1761 1.12902 4.05799 0.763985 5.03245C0.402961 5.96236 0.161367 7.01626 0.0847859 8.57432C0.0145868 10.1269 0 10.6201 0 14.585C0 18.5499 0.0191452 19.044 0.0847859 20.5957C0.161367 22.1492 0.402961 23.2076 0.763985 24.1375C1.13141 25.1108 1.70667 25.9922 2.44967 26.7203C3.1761 27.4654 4.05799 28.041 5.03245 28.406C5.96236 28.7625 7.02082 29.0086 8.57432 29.0852C10.1269 29.1554 10.6201 29.17 14.585 29.17C18.5499 29.17 19.044 29.1509 20.5957 29.0852C22.1492 29.0086 23.2076 28.7616 24.1375 28.406C25.1108 28.0386 25.9922 27.4633 26.7203 26.7203C27.4664 25.9947 28.0421 25.1126 28.406 24.1375C28.7625 23.2076 29.0086 22.1492 29.0852 20.5957C29.1554 19.0431 29.17 18.5499 29.17 14.585C29.17 10.6201 29.1509 10.126 29.0852 8.57432C29.0086 7.02082 28.7616 5.95689 28.406 5.03245C28.0386 4.0592 27.4633 3.1778 26.7203 2.44967C25.9947 1.70364 25.1126 1.12791 24.1375 0.763985C23.2076 0.402961 22.1492 0.161367 20.5957 0.0847859C19.0431 0.0145868 18.5499 0 14.585 0ZM14.585 2.62563C18.4788 2.62563 18.9437 2.64477 20.4826 2.71041C21.9021 2.77697 22.6752 3.014 23.1885 3.21457C23.823 3.4488 24.3974 3.82161 24.8696 4.30585C25.353 4.77612 25.7244 5.34912 25.9563 5.98242C26.1569 6.49569 26.3939 7.2688 26.4605 8.68828C26.5261 10.2272 26.5453 10.6931 26.5453 14.5859C26.5453 18.4788 26.5261 18.9446 26.455 20.4835C26.3784 21.903 26.1414 22.6761 25.9418 23.1894C25.6655 23.8741 25.3574 24.3527 24.8487 24.8705C24.3748 25.3517 23.8008 25.7228 23.1675 25.9573C22.6606 26.1578 21.8766 26.3949 20.4516 26.4614C18.9045 26.527 18.4487 26.5462 14.5449 26.5462C10.6411 26.5462 10.1862 26.527 8.63722 26.4559C7.21774 26.3794 6.43461 26.1423 5.92134 25.9427C5.22846 25.6664 4.75348 25.3583 4.24477 24.8496C3.73149 24.3363 3.40511 23.8476 3.15349 23.1684C2.94927 22.6615 2.71588 21.8775 2.64021 20.4525C2.58825 18.9237 2.56363 18.4496 2.56363 14.564C2.56363 10.6803 2.58825 10.2053 2.64021 8.65728C2.71588 7.23233 2.94927 6.45011 3.15349 5.9414C3.40511 5.24761 3.7324 4.77354 4.24477 4.26026C4.75257 3.75246 5.22846 3.42426 5.92134 3.16716C6.43461 2.96751 7.1986 2.73047 8.62355 2.65936C10.1707 2.60375 10.6265 2.58369 14.5248 2.58369L14.585 2.62563ZM14.585 7.09923C13.6016 7.09887 12.6278 7.29229 11.7192 7.66845C10.8106 8.04461 9.98503 8.59613 9.28967 9.29149C8.59431 9.98685 8.04279 10.8124 7.66663 11.721C7.29047 12.6296 7.09704 13.6034 7.0974 14.5868C7.09704 15.5702 7.29047 16.544 7.66663 17.4526C8.04279 18.3612 8.59431 19.1868 9.28967 19.8822C9.98503 20.5775 10.8106 21.129 11.7192 21.5052C12.6278 21.8814 13.6016 22.0748 14.585 22.0744C15.5684 22.0748 16.5422 21.8814 17.4508 21.5052C18.3594 21.129 19.185 20.5775 19.8803 19.8822C20.5757 19.1868 21.1272 18.3612 21.5034 17.4526C21.8795 16.544 22.073 15.5702 22.0726 14.5868C22.073 13.6034 21.8795 12.6296 21.5034 11.721C21.1272 10.8124 20.5757 9.98685 19.8803 9.29149C19.185 8.59613 18.3594 8.04461 17.4508 7.66845C16.5422 7.29229 15.5684 7.09887 14.585 7.09923ZM14.585 19.4488C11.8974 19.4488 9.72303 17.2744 9.72303 14.5868C9.72303 11.8992 11.8974 9.72485 14.585 9.72485C17.2726 9.72485 19.447 11.8992 19.447 14.5868C19.447 17.2744 17.2726 19.4488 14.585 19.4488ZM24.1248 6.80019C24.1243 7.26484 23.9394 7.7103 23.6107 8.03868C23.2819 8.36707 22.8363 8.55153 22.3716 8.55153C22.1419 8.55153 21.9144 8.50627 21.7021 8.41835C21.4899 8.33043 21.297 8.20156 21.1345 8.03911C20.9721 7.87665 20.8432 7.68379 20.7553 7.47153C20.6674 7.25927 20.6221 7.03177 20.6221 6.80202C20.6221 6.57227 20.6674 6.34477 20.7553 6.13251C20.8432 5.92025 20.9721 5.72739 21.1345 5.56493C21.297 5.40247 21.4899 5.27361 21.7021 5.18568C21.9144 5.09776 22.1419 5.05251 22.3716 5.05251C23.3353 5.05251 24.1248 5.83655 24.1248 6.80019Z" fill="#333333"/>
</svg>
