<svg width="31" height="31" viewBox="0 0 31 31" fill="none" xmlns="http://www.w3.org/2000/svg">
<path d="M13.5968 11.0331V13.0413H12.1268V15.4956H13.5968V22.7917H16.6185V15.4956H18.6456C18.6456 15.4956 18.8366 14.3188 18.9285 13.0311H16.6302V11.354C16.6302 11.1017 16.9597 10.7648 17.2864 10.7648H18.9314V8.20834H16.6929C13.5225 8.20834 13.5968 10.6656 13.5968 11.0331Z" fill="#333333"/>
<path d="M6.74996 3.83334C5.97641 3.83334 5.23455 4.14063 4.68756 4.68761C4.14058 5.23459 3.83329 5.97646 3.83329 6.75V24.25C3.83329 25.0236 4.14058 25.7654 4.68756 26.3124C5.23455 26.8594 5.97641 27.1667 6.74996 27.1667H24.25C25.0235 27.1667 25.7654 26.8594 26.3124 26.3124C26.8593 25.7654 27.1666 25.0236 27.1666 24.25V6.75C27.1666 5.97646 26.8593 5.23459 26.3124 4.68761C25.7654 4.14063 25.0235 3.83334 24.25 3.83334H6.74996ZM6.74996 0.916672H24.25C25.7971 0.916672 27.2808 1.53125 28.3747 2.62522C29.4687 3.71918 30.0833 5.20291 30.0833 6.75V24.25C30.0833 25.7971 29.4687 27.2808 28.3747 28.3748C27.2808 29.4688 25.7971 30.0833 24.25 30.0833H6.74996C5.20286 30.0833 3.71913 29.4688 2.62517 28.3748C1.53121 27.2808 0.916626 25.7971 0.916626 24.25V6.75C0.916626 5.20291 1.53121 3.71918 2.62517 2.62522C3.71913 1.53125 5.20286 0.916672 6.74996 0.916672V0.916672Z" fill="#333333"/>
</svg>
