<svg width="36" height="36" viewBox="0 0 36 36" fill="none" xmlns="http://www.w3.org/2000/svg">
<path fill-rule="evenodd" clip-rule="evenodd" d="M5.40002 8.99995C5.40002 8.52256 5.58967 8.06472 5.92723 7.72716C6.2648 7.38959 6.72263 7.19995 7.20002 7.19995H28.8C29.2774 7.19995 29.7353 7.38959 30.0728 7.72716C30.4104 8.06472 30.6 8.52256 30.6 8.99995C30.6 9.47734 30.4104 9.93518 30.0728 10.2727C29.7353 10.6103 29.2774 10.8 28.8 10.8H7.20002C6.72263 10.8 6.2648 10.6103 5.92723 10.2727C5.58967 9.93518 5.40002 9.47734 5.40002 8.99995ZM5.40002 18C5.40002 17.5226 5.58967 17.0647 5.92723 16.7272C6.2648 16.3896 6.72263 16.2 7.20002 16.2H28.8C29.2774 16.2 29.7353 16.3896 30.0728 16.7272C30.4104 17.0647 30.6 17.5226 30.6 18C30.6 18.4773 30.4104 18.9352 30.0728 19.2727C29.7353 19.6103 29.2774 19.7999 28.8 19.7999H7.20002C6.72263 19.7999 6.2648 19.6103 5.92723 19.2727C5.58967 18.9352 5.40002 18.4773 5.40002 18ZM5.40002 26.9999C5.40002 26.5226 5.58967 26.0647 5.92723 25.7272C6.2648 25.3896 6.72263 25.1999 7.20002 25.1999H28.8C29.2774 25.1999 29.7353 25.3896 30.0728 25.7272C30.4104 26.0647 30.6 26.5226 30.6 26.9999C30.6 27.4773 30.4104 27.9352 30.0728 28.2727C29.7353 28.6103 29.2774 28.7999 28.8 28.7999H7.20002C6.72263 28.7999 6.2648 28.6103 5.92723 28.2727C5.58967 27.9352 5.40002 27.4773 5.40002 26.9999Z" fill="#FF5541"/>
</svg>
